<svg width="282" height="362" viewBox="0 0 282 362" fill="none" xmlns="http://www.w3.org/2000/svg">
<path d="M41.0172 22.478L45.0559 17.9615L50.1993 13.4923L56.072 9.46308L60.977 6.76646C61.7432 6.14501 63.7294 5.43421 65.5029 4.73706C69.1982 3.28447 74.9684 2.19039 74.9684 2.19039C74.9684 2.19039 80.5308 0.941269 82.6114 0.941269H91.9045C95.0034 0.941269 97.465 1.13669 100.539 1.53666C105.664 2.20351 107.626 2.85061 112.448 4.73706C117.689 6.78737 121.312 9.55859 126.15 12.4555C129.645 14.5477 131.501 15.9464 134.539 18.6764C136.861 20.7626 140.094 24.4364 140.094 24.4364C140.094 24.4364 143.867 20.8119 146.442 18.6764C149.584 16.0705 151.389 14.6364 154.831 12.4555C158.879 9.88962 161.299 8.65197 165.713 6.81068C169.845 5.08729 172.216 4.12951 176.596 3.23947C181.297 2.28401 183.669 1.66099 188.46 1.4702C193.856 1.25526 197.302 1.69921 202.668 2.31785C208.504 2.99062 211.798 3.77945 217.292 5.88909C224.792 8.76889 233.201 14.5115 234.486 16.1243C235.771 17.7371 237.828 19.2746 239.349 21.151C242.044 24.4769 243.418 26.2125 245.859 29.7356C248.402 33.4066 249.575 35.9836 251.381 39.9528L251.582 40.3943C253.752 45.1594 255.125 47.787 256.061 52.9026C256.619 55.9525 256.619 57.7259 256.619 60.5979C256.619 63.7496 256.72 61.8197 256.619 64.7507C256.513 67.8289 256.203 73.9833 256.061 77.0601C255.837 81.9355 255.568 84.1943 254.41 88.931C253.789 91.4696 253.267 92.7732 252.511 95.2736C251.51 98.5816 250.797 100.518 249.568 103.745C248.633 106.2 247.934 107.505 246.778 109.86C244.231 115.05 242.889 117.098 240.019 122.111C238.116 125.436 236.695 128.036 234.569 131.218C232.836 133.812 231.735 135.178 229.773 137.598C228.131 139.624 227.572 140.554 226.019 142.65C224.507 144.689 221.925 148.144 221.925 148.144C221.925 148.144 219.886 144.694 218.349 142.65C216.33 139.964 215.028 138.573 212.594 136.269C210.325 134.121 208.875 133.119 206.402 131.218C203.576 129.045 201.962 127.86 198.99 125.901C196.324 124.143 194.846 123.109 192.014 121.647C187.632 119.384 184.925 118.639 180.241 117.127C176.375 115.879 174.1 115.556 170.212 114.38C166.713 113.321 164.822 112.498 161.318 111.455C155.999 109.873 152.969 109.127 147.539 107.999C145.367 107.548 144.163 107.18 141.958 106.936C138.844 106.591 136.674 106.051 133.541 106.051C130.953 106.051 129.85 106.443 127.308 106.936C125.911 107.206 125.618 108.048 125.618 109.215C125.618 110.381 126.38 112.219 128.616 114.38C130.78 116.47 132.432 117.096 134.895 118.811C137.809 120.84 139.704 121.416 142.508 123.6C144.961 125.512 146.776 126.397 149.017 128.562C150.571 130.063 151.946 131.011 152.248 133.167L152.255 133.215C152.323 133.701 152.367 134.008 152.248 134.497C151.752 136.547 146.893 135.141 146.893 135.141C146.893 135.141 142.406 133.949 139.604 133.167C136.432 132.283 134.783 131.37 131.755 130.066C128.613 128.711 126.829 127.981 123.82 126.344C121.044 124.834 119.529 123.895 116.931 122.09C114.384 120.32 112.919 119.343 110.652 117.216C108.935 115.604 108.013 114.667 106.367 112.981C104.483 111.052 103.475 109.919 101.583 107.999C98.8197 105.197 97.6864 103.205 94.7809 100.555C92.231 98.2298 90.0182 96.8797 87.8046 95.1493L82.1363 90.7183C79.9227 88.9879 79.7368 88.7565 78.142 88.1414C75.9797 87.3075 74.6785 86.6983 72.4567 87.3507C71.4016 87.6606 70.6775 87.8785 70.0149 88.7687C69.2817 89.7538 69.4061 90.6351 69.4045 91.8704C69.4016 94.2161 70.328 95.4858 71.5846 97.4534C73.1722 99.9394 75.0461 100.468 77.0785 102.593C79.1817 104.793 80.4057 106.018 82.1363 108.531C83.6236 110.69 84.0709 112.148 85.4501 114.38C87.0124 116.908 88.0642 118.208 89.7231 120.672C90.8858 122.399 91.5512 123.358 92.688 125.103C93.9397 127.024 94.5579 128.157 95.8274 130.066C97.9555 133.266 99.0582 135.154 101.583 138.041C103.598 140.347 104.908 141.473 107.164 143.536C109.663 145.821 111.238 146.896 113.791 149.119C116.558 151.527 117.796 153.271 120.768 155.411C123.815 157.605 125.766 158.479 129.139 160.108C132.715 161.834 134.794 162.669 138.557 163.919C141.51 164.899 143.172 165.501 146.231 166.045C149.728 166.668 151.754 166.511 155.301 166.666C161.595 166.941 165.133 166.666 171.433 166.666C174.321 166.666 176.293 166.093 178.719 166.284C178.815 166.289 178.967 166.304 179.186 166.33C179.738 166.395 180.318 166.502 180.939 166.666C181.446 166.799 181.597 166.858 181.528 166.867C186.587 168.244 196.897 171.717 196.897 171.717C196.897 171.717 190.592 178.288 185.996 181.82C182.682 184.367 180.802 186.019 177.475 188.551C174.111 191.111 172.16 192.144 168.904 194.847C166.05 197.217 163.939 198.148 160.88 200.237C158.232 202.044 157.052 203.228 154.365 204.974C151.81 206.634 150.581 207.752 148.063 209.469C145.341 211.325 140.999 214.078 140.999 214.078C140.999 214.078 136.55 211.771 133.761 210.178C130.365 208.239 128.518 207.049 125.215 204.95C122.709 203.356 121.295 202.473 118.849 200.785C115.644 198.571 113.98 197.137 110.826 194.847C108.42 193.1 107.012 192.205 104.635 190.416C101.459 188.026 99.8671 186.436 96.6994 184.035C94.7826 182.583 91.6772 179.928 91.6772 179.928C91.6772 179.928 87.5743 176.552 85.1654 174.661C83.3106 173.206 82.7003 172.879 79.451 170.205C76.2018 167.531 74.8344 166.261 72.5406 163.919C70.9947 162.34 70.0186 161.428 67.424 158.434C64.8294 155.441 68.781 160.01 65.5468 156.289C63.3901 153.807 59.2327 148.762 57.0393 146.313C55.5917 144.235 49.246 137.168 47.7294 135.141C46.8482 133.963 46.0672 132.758 45.241 131.568C44.8553 131.052 44.4966 130.555 44.1547 130.066C43.8298 129.639 43.8895 129.716 44.1453 130.052C42.8335 128.172 41.7673 126.391 40.3656 123.951C38.8911 121.384 38.2837 119.822 36.8774 117.216C35.3297 114.348 34.4731 112.612 33.1685 109.622C32.1165 107.211 31.5089 106.038 30.5987 103.568C29.4633 100.487 28.7221 99.0515 27.7483 95.9133C26.8441 92.999 26.337 91.138 25.7153 88.1483C24.9418 84.4292 24.6342 82.3415 24.1737 78.5692L24.1621 78.4743C23.6863 74.5762 23.4134 72.341 23.3608 68.386C23.2925 63.2588 23.3263 60.356 23.9712 55.2703C24.2846 52.7987 25.0176 48.9783 25.0176 48.9783C25.0176 48.9783 25.8093 50.3411 27.4593 52.3893C29.3027 54.6775 31.6578 57.5494 33.8694 59.7596C35.6388 61.528 37.3977 62.8624 39.2766 64.5287C40.6162 65.7167 41.3862 66.367 42.8317 67.419C44.6313 68.7286 45.9208 69.6111 47.5726 70.9218C49.5016 72.4525 50.4055 72.5957 52.573 73.6332C54.7416 74.6714 57.9996 76.0291 60.2481 76.8738C62.4439 77.6988 61.7796 77.3693 63.9496 77.8965C66.1287 78.4259 68.252 79.0996 70.3454 79.9111C73.0338 80.9533 74.3677 81.179 77.0785 82.1597C80.0732 83.2431 80.9417 83.7019 84.0216 84.5014C86.6056 85.1721 88.0282 85.902 90.6136 86.5675C92.3893 87.0246 93.3782 87.31 95.1642 87.7236C98.1961 88.4259 99.8254 88.9723 102.804 89.7469C105.823 90.5319 108.261 90.6218 111.376 90.7183C114.346 90.8103 115.819 90.8033 118.603 89.7469C120.102 89.1779 121.178 89.0823 121.899 87.7236C123.186 85.2993 119.727 83.7305 117.633 82.1597C115.372 80.4635 113.792 79.4394 111.376 77.8309C108.96 76.2224 107.782 75.8306 105.19 74.4281C102.598 73.0256 101.601 72.4394 100.008 71.6301C98.1926 70.7075 97.3465 69.9724 96.2684 68.2243C95.7533 67.3892 94.8132 65.5029 94.8132 65.5029C94.8132 65.5029 94.1265 63.9578 94.0976 62.5054C94.036 59.402 98.6402 61.2331 101.601 61.9961C105.19 62.921 107.079 63.6094 110.309 64.6009C112.529 65.2822 113.772 65.6829 115.927 66.5519C119.286 67.9065 121.224 68.6555 124.246 70.6706C126.867 72.4192 128.064 73.7836 130.432 75.8733C132.094 77.3408 133.002 78.1921 134.627 79.7029C136.96 81.8728 138.258 83.1018 140.529 85.3391C142.784 87.5614 143.954 88.9052 146.217 91.1198C150.878 95.681 153.487 98.2758 158.589 102.32C161.531 104.652 166.339 107.999 166.339 107.999C166.339 107.999 170.595 110.824 173.236 109.907C174.474 109.477 176.009 107.999 176.009 107.999C176.009 107.999 177.29 106.381 177.431 105.138C177.651 103.207 175.298 100.658 175.298 100.658C175.298 100.658 172.712 97.3941 170.89 95.4553C169.221 93.6801 167.988 92.9788 166.41 91.1198C164.65 89.0453 163.889 87.6869 162.5 85.3391C161.379 83.4457 161.007 82.2359 159.869 80.3533C158.473 78.0444 157.391 76.9548 155.887 74.7171C154.302 72.3578 153.614 70.8975 151.976 68.5751C150.582 66.5975 149.783 65.4939 148.208 63.6616C146.838 62.0683 146.218 60.7361 144.845 59.1462C143.371 57.4405 142.447 56.8965 140.955 55.2074C139.945 54.0638 139.344 53.4529 138.253 52.3893C135.862 50.0583 134.313 48.9839 131.712 46.8976C130.064 45.5758 129.161 44.8026 127.445 43.5737C125.09 41.887 123.741 40.9579 121.188 39.5995C118.93 38.3981 117.483 38.1083 115.216 36.926C113.245 35.8986 112.401 35.6604 110.309 34.9221C108.061 34.1286 106.603 33.6976 104.266 33.2408C101.527 32.7055 100.062 31.7853 97.3684 31.3621L90.4714 30.2782C87.7779 29.8549 81.3824 29.3214 75.5395 28.9775C70.9071 28.7049 68.2573 29.2214 63.6652 28.544C60.312 28.0493 55.2038 26.593 55.2038 26.593L49.2372 25.2342L43.4477 23.5999L41.0172 22.478Z" fill="#98316A"/>
<path d="M57.0393 146.313C59.2327 148.762 63.3901 153.807 65.5468 156.289C68.781 160.01 64.8294 155.441 67.424 158.434C70.0186 161.428 70.9947 162.34 72.5406 163.919C74.8344 166.261 76.2018 167.531 79.451 170.205C82.7003 172.879 83.3106 173.206 85.1654 174.661C87.5743 176.552 91.6772 179.928 91.6772 179.928C91.6772 179.928 94.7826 182.583 96.6994 184.035C99.8671 186.436 101.459 188.026 104.635 190.416C107.012 192.205 108.42 193.1 110.826 194.847C113.98 197.137 115.644 198.571 118.849 200.785C121.295 202.473 122.709 203.356 125.215 204.95C128.518 207.049 130.365 208.239 133.761 210.178C136.55 211.771 140.999 214.078 140.999 214.078C140.999 214.078 145.341 211.325 148.063 209.469C150.581 207.752 151.81 206.634 154.365 204.974C157.052 203.228 158.232 202.044 160.88 200.237C163.939 198.148 166.05 197.217 168.904 194.847C172.16 192.144 174.111 191.111 177.475 188.551C180.802 186.019 182.682 184.367 185.996 181.82C190.592 178.288 196.897 171.717 196.897 171.717C196.897 171.717 181.851 166.648 179.194 166.331C176.536 166.013 183.585 167.363 180.939 166.666C177.345 165.719 175.145 166.666 171.433 166.666C165.133 166.666 161.595 166.941 155.301 166.666C151.754 166.511 149.728 166.668 146.231 166.045C143.172 165.501 141.51 164.899 138.557 163.919C134.794 162.669 132.715 161.834 129.139 160.108C125.766 158.479 123.815 157.605 120.768 155.411C117.796 153.271 116.558 151.527 113.791 149.119C111.238 146.896 109.663 145.821 107.164 143.536C104.908 141.473 103.598 140.347 101.583 138.041C99.0582 135.154 97.9555 133.266 95.8274 130.066C94.5579 128.157 93.9397 127.024 92.688 125.103C91.5512 123.358 90.8858 122.399 89.7231 120.672C88.0642 118.208 87.0124 116.908 85.4501 114.38C84.0709 112.148 83.6236 110.69 82.1363 108.531C80.4057 106.018 79.1817 104.793 77.0785 102.593C75.0461 100.468 73.1722 99.9394 71.5846 97.4534C70.328 95.4858 69.4016 94.2161 69.4045 91.8704C69.4061 90.6351 69.2817 89.7538 70.0149 88.7687C70.6775 87.8785 71.4016 87.6606 72.4567 87.3507C74.6785 86.6983 75.9797 87.3075 78.142 88.1414C79.7368 88.7565 79.9227 88.9879 82.1363 90.7183C84.3499 92.4487 85.591 93.4189 87.8046 95.1493C90.0182 96.8797 92.231 98.2298 94.7809 100.555C97.6864 103.205 98.8197 105.197 101.583 107.999C103.475 109.919 104.483 111.052 106.367 112.981C108.013 114.667 108.935 115.604 110.652 117.216C112.919 119.343 114.384 120.32 116.931 122.09C119.529 123.895 121.044 124.834 123.82 126.344C126.829 127.981 128.613 128.711 131.755 130.066C134.783 131.37 136.432 132.283 139.604 133.167C142.406 133.949 146.893 135.141 146.893 135.141C146.893 135.141 151.752 136.547 152.248 134.497C152.37 133.993 152.32 133.681 152.248 133.167C151.946 131.011 150.571 130.063 149.017 128.562C146.776 126.397 144.961 125.512 142.508 123.6C139.704 121.416 137.809 120.84 134.895 118.811C132.432 117.096 130.78 116.47 128.616 114.38C126.38 112.219 125.618 110.381 125.618 109.215C125.618 108.048 125.911 107.206 127.308 106.936C129.85 106.443 130.953 106.051 133.541 106.051C136.674 106.051 138.844 106.591 141.958 106.936C144.163 107.18 145.367 107.548 147.539 107.999C152.969 109.127 155.999 109.873 161.318 111.455C164.822 112.498 166.713 113.321 170.212 114.38C174.1 115.556 176.375 115.879 180.241 117.127C184.925 118.639 187.632 119.384 192.014 121.647C194.846 123.109 196.324 124.143 198.99 125.901C201.962 127.86 203.576 129.045 206.402 131.218C208.875 133.119 210.325 134.121 212.594 136.269C215.028 138.573 216.33 139.964 218.349 142.65C219.886 144.694 221.925 148.144 221.925 148.144C221.925 148.144 224.507 144.689 226.019 142.65C227.572 140.554 228.131 139.624 229.773 137.598C231.735 135.178 232.836 133.812 234.569 131.218C236.695 128.036 238.116 125.436 240.019 122.111C242.889 117.098 244.231 115.05 246.778 109.86C247.934 107.505 248.633 106.2 249.568 103.745C250.797 100.518 251.51 98.5816 252.511 95.2736C253.267 92.7732 253.789 91.4696 254.41 88.931C255.568 84.1943 255.837 81.9355 256.061 77.0601C256.203 73.9833 256.513 67.829 256.619 64.7507C256.72 61.8197 256.619 63.7496 256.619 60.5979C256.619 57.7259 256.619 55.9525 256.061 52.9026C255.125 47.787 253.752 45.1594 251.582 40.3943C249.659 36.1708 248.495 33.5409 245.859 29.7356C243.418 26.2125 242.044 24.4769 239.349 21.151C237.828 19.2746 235.771 17.7371 234.486 16.1243C233.201 14.5115 224.792 8.76889 217.292 5.88909C211.798 3.77945 208.504 2.99062 202.668 2.31785C197.302 1.69921 193.856 1.25526 188.46 1.4702C183.669 1.66099 181.297 2.28401 176.596 3.23947C172.216 4.12951 169.845 5.08729 165.713 6.81068C161.299 8.65197 158.879 9.88962 154.831 12.4555C151.389 14.6364 149.584 16.0705 146.442 18.6764C143.867 20.8119 140.094 24.4364 140.094 24.4364C140.094 24.4364 136.861 20.7626 134.539 18.6764C131.501 15.9464 129.645 14.5477 126.15 12.4555C121.312 9.55859 117.689 6.78737 112.448 4.73706C107.626 2.85061 105.664 2.20351 100.539 1.53666C97.465 1.13669 95.0034 0.941269 91.9045 0.941269C87.3004 0.941269 87.2155 0.941269 82.6114 0.941269C80.5308 0.941269 74.9684 2.19039 74.9684 2.19039C74.9684 2.19039 69.1982 3.28447 65.5029 4.73706C63.7294 5.43421 61.7432 6.14501 60.977 6.76646L56.072 9.46308L50.1993 13.4923L45.0559 17.9615L41.0172 22.478L43.4477 23.5999L49.2372 25.2342L55.2038 26.593C55.2038 26.593 60.312 28.0493 63.6652 28.544C68.2573 29.2214 70.9071 28.7049 75.5395 28.9775C81.3824 29.3214 87.7779 29.8549 90.4714 30.2782C93.1648 30.7015 94.675 30.9388 97.3684 31.3621C100.062 31.7853 101.527 32.7055 104.266 33.2408C106.603 33.6976 108.061 34.1286 110.309 34.9221C112.401 35.6604 113.245 35.8986 115.216 36.926C117.483 38.1083 118.93 38.3981 121.188 39.5995C123.741 40.9579 125.09 41.887 127.445 43.5737C129.161 44.8026 130.064 45.5758 131.712 46.8976C134.313 48.9839 135.862 50.0583 138.253 52.3893C139.344 53.4529 139.945 54.0638 140.955 55.2074C142.447 56.8965 143.371 57.4405 144.845 59.1462C146.218 60.7361 146.838 62.0683 148.208 63.6616C149.783 65.4939 150.582 66.5975 151.976 68.5751C153.614 70.8975 154.302 72.3578 155.887 74.7171C157.391 76.9548 158.473 78.0444 159.869 80.3533C161.007 82.2359 161.379 83.4457 162.5 85.3391C163.889 87.6869 164.65 89.0453 166.41 91.1198C167.988 92.9788 169.221 93.6801 170.89 95.4553C172.712 97.3941 175.298 100.658 175.298 100.658C175.298 100.658 177.651 103.207 177.431 105.138C177.29 106.381 176.009 107.999 176.009 107.999C176.009 107.999 174.474 109.477 173.236 109.907C170.595 110.824 166.339 107.999 166.339 107.999C166.339 107.999 161.531 104.652 158.589 102.32C153.487 98.2758 150.878 95.681 146.217 91.1198C143.954 88.9052 142.784 87.5614 140.529 85.3391C138.258 83.1018 136.96 81.8728 134.627 79.7029C133.002 78.1921 132.094 77.3408 130.432 75.8733C128.064 73.7836 126.867 72.4192 124.246 70.6706C121.224 68.6555 119.286 67.9065 115.927 66.5519C113.772 65.6829 112.529 65.2822 110.309 64.6009C107.079 63.6094 105.19 62.921 101.601 61.9961C98.6402 61.2331 94.036 59.402 94.0976 62.5054C94.1265 63.9578 94.8132 65.5029 94.8132 65.5029C94.8132 65.5029 95.7533 67.3892 96.2684 68.2243C97.3466 69.9723 98.1926 70.7075 100.008 71.6301C101.601 72.4394 102.598 73.0256 105.19 74.4281C107.782 75.8306 108.96 76.2224 111.376 77.8309C113.792 79.4394 115.372 80.4635 117.633 82.1597C119.727 83.7305 123.186 85.2993 121.899 87.7236C121.178 89.0823 120.102 89.1779 118.603 89.7469C115.819 90.8033 114.346 90.8103 111.376 90.7183C108.261 90.6218 105.823 90.5319 102.804 89.7469C99.8254 88.9723 98.1961 88.4259 95.1642 87.7236C93.3782 87.31 92.3893 87.0246 90.6136 86.5675C88.0282 85.902 86.6056 85.1721 84.0216 84.5014C80.9417 83.7019 80.0732 83.2431 77.0785 82.1597C74.3677 81.179 73.0338 80.9533 70.3454 79.9111C68.252 79.0996 66.1287 78.4259 63.9496 77.8965C61.7796 77.3693 62.4439 77.6988 60.2481 76.8738C57.9996 76.0291 54.7416 74.6714 52.573 73.6332C50.4055 72.5957 49.5016 72.4525 47.5726 70.9218C45.9208 69.6111 44.6313 68.7286 42.8317 67.419C41.3862 66.367 40.6162 65.7167 39.2766 64.5287C37.3977 62.8624 35.6388 61.528 33.8694 59.7596C31.6578 57.5494 29.3027 54.6775 27.4593 52.3893C25.8093 50.3411 25.0176 48.9783 25.0176 48.9783C25.0176 48.9783 24.2846 52.7987 23.9712 55.2703C23.3263 60.356 23.2925 63.2588 23.3608 68.386C23.4139 72.373 23.6907 74.6122 24.1737 78.5692C24.6342 82.3415 24.9418 84.4292 25.7153 88.1483C26.337 91.138 26.8441 92.999 27.7483 95.9133C28.7221 99.0515 29.4633 100.487 30.5987 103.568C31.5089 106.038 32.1165 107.211 33.1685 109.622C34.4731 112.612 35.3297 114.348 36.8774 117.216C38.2837 119.822 38.8911 121.384 40.3656 123.951C42.5178 127.698 43.8787 129.89 46.5527 133.273C47.9734 135.069 42.8204 128.312 44.1547 130.066C45.423 131.732 46.4746 133.464 47.7294 135.141C49.246 137.168 55.5917 144.235 57.0393 146.313ZM57.0393 146.313C55.7503 144.875 58.1456 147.902 57.0393 146.313Z" stroke="#98316A"/>
<path d="M70.3396 285.669V287.589H60.7396V339.429H47.2996V318.597H40.1956V318.981C40.1956 324.229 38.1796 328.197 34.1476 330.885C30.1156 333.573 24.8036 334.917 18.2116 334.917C6.88362 334.917 1.21962 330.373 1.21962 321.285C1.21962 318.789 1.92362 316.741 3.33162 315.141C4.73962 313.541 6.53162 312.741 8.70762 312.741C10.8836 312.741 12.5796 313.349 13.7956 314.565C15.0756 315.781 15.7156 317.253 15.7156 318.981C15.7156 320.709 15.2356 322.085 14.2756 323.109C13.3156 324.133 12.2596 324.773 11.1076 325.029C8.09962 325.861 6.59562 326.949 6.59562 328.293C6.59562 329.637 7.39562 330.693 8.99562 331.461C10.6596 332.229 12.4836 332.613 14.4676 332.613C22.3396 332.613 26.2756 328.069 26.2756 318.981C26.2756 315.077 25.3476 312.069 23.4916 309.957C21.6356 307.845 18.4036 306.789 13.7956 306.789H12.3556V304.869H13.7956C20.5156 304.869 23.8756 301.573 23.8756 294.981C23.8756 290.053 21.5396 287.589 16.8676 287.589C14.5636 287.589 12.4836 288.325 10.6276 289.797L9.85962 288.453C13.3156 285.829 17.5076 284.517 22.4356 284.517C27.4276 284.517 31.0756 285.445 33.3796 287.301C35.7476 289.157 36.9316 291.461 36.9316 294.213C36.9316 299.909 33.1556 303.557 25.6036 305.157V305.541C29.6356 305.797 32.9316 306.885 35.4916 308.805C38.0516 310.661 39.5556 313.285 40.0036 316.677H47.2996V287.589H41.8276V285.669H70.3396ZM121.226 285.669V287.589H111.626V339.429H98.1861V313.029C93.6421 313.669 89.7381 314.757 86.4741 316.293C83.2101 317.829 81.5781 319.557 81.5781 321.477C81.5781 322.821 82.8901 324.005 85.5141 325.029C86.4741 325.413 87.3701 326.149 88.2021 327.237C89.0341 328.261 89.4501 329.701 89.4501 331.557C89.4501 333.413 88.7461 334.949 87.3381 336.165C85.9941 337.381 84.1381 337.989 81.7701 337.989C79.4021 337.989 77.5461 337.157 76.2021 335.493C74.8581 333.829 74.1861 331.781 74.1861 329.349C74.1861 324.357 76.4581 320.325 81.0021 317.253C85.5461 314.117 91.2741 312.069 98.1861 311.109C95.4981 305.221 92.8741 300.933 90.3141 298.245C87.8181 295.493 84.9701 294.117 81.7701 294.117C80.4261 294.117 79.3061 294.373 78.4101 294.885C77.5141 295.397 77.0661 296.037 77.0661 296.805C77.0661 297.509 77.4821 298.085 78.3141 298.533C79.2101 298.917 80.1381 299.237 81.0981 299.493C82.1221 299.749 83.0501 300.453 83.8821 301.605C84.7781 302.693 85.2261 304.197 85.2261 306.117C85.2261 307.973 84.5541 309.541 83.2101 310.821C81.9301 312.101 80.1701 312.741 77.9301 312.741C75.6901 312.741 73.8661 311.909 72.4581 310.245C71.0501 308.517 70.3461 306.213 70.3461 303.333C70.3461 300.389 71.4341 297.797 73.6101 295.557C75.8501 293.317 78.6341 292.197 81.9621 292.197C85.2901 292.197 88.2341 293.445 90.7941 295.941C93.4181 298.373 95.8821 301.925 98.1861 306.597V287.589H66.2181V285.669H121.226ZM174.918 285.669V287.589H165.318V339.429H151.878V320.133C150.918 321.797 149.254 323.333 146.886 324.741C144.518 326.085 141.894 326.757 139.014 326.757C136.134 326.757 133.606 326.181 131.43 325.029C129.318 323.877 127.75 322.277 126.726 320.229C124.87 316.581 123.942 311.941 123.942 306.309V287.589H117.126V285.669H174.918ZM151.878 287.589H137.958V306.981C137.958 311.973 138.182 315.077 138.63 316.293C139.078 317.445 139.558 318.437 140.07 319.269C141.03 320.933 142.502 321.765 144.486 321.765C146.47 321.765 148.102 321.253 149.382 320.229C150.662 319.141 151.494 317.925 151.878 316.581V287.589ZM171.136 345.765C168.832 343.589 166.304 342.501 163.552 342.501C160.8 342.501 158.624 343.237 157.024 344.709C155.424 346.181 154.624 348.133 154.624 350.565C154.624 352.997 155.232 354.853 156.448 356.133C157.664 357.413 159.072 358.053 160.672 358.053C162.272 358.053 163.584 357.669 164.608 356.901C165.632 356.133 166.208 355.013 166.336 353.541L168.256 354.021C167.616 359.077 163.808 361.605 156.832 361.605C152.992 361.605 149.76 360.613 147.136 358.629C144.512 356.645 143.2 353.893 143.2 350.373C143.2 346.917 144.544 344.005 147.232 341.637C149.856 339.333 153.536 338.181 158.272 338.181C165.056 338.181 170.272 340.453 173.92 344.997C177.632 349.605 179.552 354.949 179.68 361.029H177.76C177.632 354.757 175.424 349.669 171.136 345.765ZM253.128 285.669V287.589H243.72V339.429H230.28V287.589H218.568V306.597C218.568 313.509 216.936 318.533 213.672 321.669C210.408 324.741 205.192 326.277 198.024 326.277C190.92 326.277 185.704 324.741 182.376 321.669C179.112 318.533 177.48 313.509 177.48 306.597V287.589H170.472V285.669H253.128ZM204.648 307.941V287.589H191.4V307.941C191.4 316.517 192.36 321.573 194.28 323.109C195.24 323.941 196.36 324.357 197.64 324.357C198.984 324.357 200.04 324.197 200.808 323.877C201.576 323.493 202.184 322.885 202.632 322.053C203.144 321.157 203.528 320.325 203.784 319.557C204.104 318.725 204.328 317.541 204.456 316.005C204.584 313.445 204.648 310.757 204.648 307.941ZM281.863 285.669V287.589H272.263V339.429H258.823V287.589H249.223V285.669H281.863ZM275.804 273.477C275.676 271.557 275.068 270.053 273.98 268.965C272.828 267.813 271.292 267.237 269.372 267.237C267.452 267.237 265.948 267.909 264.86 269.253C263.708 270.533 263.132 272.293 263.132 274.533C263.132 277.989 264.252 280.677 266.492 282.597C268.668 284.453 271.708 285.477 275.612 285.669V286.053H270.044C264.668 286.053 260.348 284.933 257.084 282.693C253.82 280.389 252.188 277.381 252.188 273.669C252.188 269.957 253.372 267.013 255.74 264.837C258.108 262.597 261.212 261.477 265.052 261.477C268.828 261.477 271.9 262.629 274.268 264.933C276.572 267.173 277.788 270.021 277.916 273.477H275.804Z" fill="#98316A"/>
</svg>
